#!OML:ASF I:\Actors\actors\Patient Classification 2\Patient 1\Session 1\actor1.ASF
:FULLY-SPECIFIED
:DEGREES
511
root -1.58327 18.0535 5.59459 1.61365 5.29751 -6.0484
lowerback 14.64 2.15849 5.09677
upperback 1.62185 3.68955 0.234235
thorax -6.17056 1.68112 -3.34615
lowerneck -7.54557 -9.86426 -9.06843
upperneck 0.871802 -12.7593 10.3205
head 2.72732 -6.14793 3.84944
rclavicle -2.87244e-014 -1.39149e-014
rhumerus -4.07318 24.5552 -60.0595
rradius 100.119
rwrist -7.65037
rhand -8.0455 -21.7223
rfingers 7.12502
rthumb 17.8651 -50.9217
lclavicle -2.87244e-014 -1.39149e-014
lhumerus -36.2297 -18.3124 83.9681
lradius 83.6496
lwrist 14.6284
lhand -4.67909 -23.5738
lfingers 7.12502
lthumb 21.1017 5.29794
rfemur 15.4037 -4.60643 24.457
rtibia -16.2117
rfoot -10.1962 -17.5601
rtoes -1.06111
lfemur 17.2594 -4.98593 -8.21889
ltibia -27.8893
lfoot 7.82306 12.7662
ltoes -19.3955
512
root -1.5819 18.0538 5.58919 1.65252 5.15308 -6.00288
lowerback 14.679 2.13364 4.98726
upperback 1.64772 3.64033 0.234335
thorax -6.17575 1.65994 -3.27677
lowerneck -7.67974 -9.83725 -9.05068
upperneck 0.926994 -12.7148 10.2617
head 2.75569 -6.1228 3.82544
rclavicle 7.95139e-016 -3.57812e-015
rhumerus -4.07957 24.3699 -59.9987
rradius 100.2
rwrist -7.8326
rhand -7.96309 -21.8117
rfingers 7.12502
rthumb 17.9443 -51.0039
lclavicle 7.95139e-016 -3.57812e-015
lhumerus -35.6611 -18.4587 83.9145
lradius 83.6906
lwrist 14.557
lhand -4.58387 -23.6845
lfingers 7.12502
lthumb 21.1932 5.17699
rfemur 15.4171 -4.49452 24.4019
rtibia -16.356
rfoot -10.0641 -17.5822
rtoes -1.21747
lfemur 17.2699 -4.85545 -8.28124
ltibia -27.9242
lfoot 7.83955 12.8005
ltoes -19.2458
513
root -1.57957 18.0535 5.58496 1.69524 5.06557 -5.9509
lowerback 14.6905 2.0731 4.87442
upperback 1.67617 3.54163 0.232183
thorax -6.16713 1.61521 -3.19706
lowerneck -7.80653 -9.76018 -9.00407
upperneck 0.95435 -12.6039 10.1975
head 2.7663 -6.0654 3.80217
rclavicle 3.17062e-014 2.78299e-014
rhumerus -4.0355 24.2236 -59.9491
rradius 100.187
rwrist -7.80595
rhand -8.16223 -21.8333
rfingers 7.12502
rthumb 17.7527 -51.043
lclavicle 3.17062e-014 2.78299e-014
lhumerus -35.1404 -18.6257 83.8575
lradius 84.1791
lwrist 14.2855
lhand -4.54822 -22.3348
lfingers 7.12502
lthumb 21.2274 6.5229
rfemur 15.4291 -4.3904 24.3402
rtibia -16.5086
rfoot -9.97188 -17.6428
rtoes -1.05137
lfemur 17.254 -4.76796 -8.34804
ltibia -27.9419
lfoot 7.83376 12.8311
ltoes -19.0759
514
root -1.5765 18.0527 5.5826 1.72183 4.96211 -5.90294
lowerback 14.7324 2.03336 4.78503
upperback 1.68743 3.47544 0.21574
thorax -6.1882 1.5843 -3.15381
lowerneck -7.81463 -9.73779 -8.9588
upperneck 0.910159 -12.5708 10.1292
head 2.74355 -6.05095 3.77877
rclavicle 2.03754e-014 1.98785e-015
rhumerus -4.06719 24.0338 -59.9141
rradius 100.186
rwrist -7.73122
rhand -8.40541 -21.9049
rfingers 7.12502
rthumb 17.5187 -51.1355
lclavicle 2.03754e-014 1.98785e-015
lhumerus -34.6473 -18.8479 83.8042
lradius 84.4087
lwrist 14.237
lhand -4.57111 -21.9244
lfingers 7.12502
lthumb 21.2054 6.93574
rfemur 15.4642 -4.29684 24.2804
rtibia -16.6519
rfoot -9.84107 -17.6868
rtoes -0.869683
lfemur 17.2636 -4.61767 -8.40975
ltibia -27.9646
lfoot 7.83838 12.7949
ltoes -18.8629
515
root -1.57248 18.052 5.58033 1.70858 4.81553 -5.88096
lowerback 14.8352 2.01716 4.73366
upperback 1.69354 3.4504 0.207414
thorax -6.2431 1.57138 -3.1343
lowerneck -7.67179 -9.78082 -8.94875
upperneck 0.741013 -12.6267 10.0833
head 2.67125 -6.08603 3.77002
rclavicle -3.73715e-014 5.56597e-015
rhumerus -4.19561 23.8179 -59.9008
rradius 100.25
rwrist -7.54915
rhand -8.46587 -22.0585
rfingers 7.12502
rthumb 17.4605 -51.2943
lclavicle -3.73715e-014 5.56597e-015
lhumerus -34.1219 -19.0158 83.7945
lradius 84.3441
lwrist 14.3572
lhand -4.68576 -22.4885
lfingers 7.12502
lthumb 21.0953 6.38401
rfemur 15.5395 -4.21108 24.2414
rtibia -16.7891
rfoot -9.65503 -17.7093
rtoes -1.15794
lfemur 17.3378 -4.4303 -8.44942
ltibia -28.0082
lfoot 7.86776 12.7408
ltoes -18.7176
516
root -1.56781 18.05 5.57749 1.66755 4.71517 -5.89978
lowerback 14.9633 1.96812 4.72301
upperback 1.71368 3.39158 0.229865
thorax -6.29931 1.5415 -3.09938
lowerneck -7.7078 -9.73762 -9.0703
upperneck 0.701513 -12.5593 10.2266
head 2.67685 -6.04882 3.83518
rclavicle -7.85199e-015 7.95139e-015
rhumerus -4.22507 23.6041 -59.8572
rradius 100.253
rwrist -7.33327
rhand -8.48883 -21.9987
rfingers 7.12502
rthumb 17.4384 -51.2364
lclavicle -7.85199e-015 7.95139e-015
lhumerus -33.5385 -19.0868 83.7637
lradius 84.0017
lwrist 14.7162
lhand -4.87961 -23.9176
lfingers 7.12502
lthumb 20.9091 4.97557
rfemur 15.6408 -4.09213 24.2493
rtibia -16.9257
rfoot -9.58212 -17.7844
rtoes -1.33423
lfemur 17.4385 -4.3394 -8.44845
ltibia -28.0747
lfoot 7.90606 12.7397
ltoes -18.9561
517
root -1.56291 18.0472 5.57537 1.64185 4.62371 -5.93583
lowerback 15.0557 1.91336 4.72855
upperback 1.745 3.32635 0.263662
thorax -6.32404 1.50948 -3.05791
lowerneck -8.00818 -9.6109 -9.23295
upperneck 0.86582 -12.3735 10.4594
head 2.78331 -5.94038 3.92595
rclavicle -2.92213e-014 3.97569e-015
rhumerus -4.18998 23.3777 -59.7485
rradius 100.251
rwrist -7.21514
rhand -8.59705 -21.8026
rfingers 7.12502
rthumb 17.3343 -51.0496
lclavicle -2.92213e-014 3.97569e-015
lhumerus -32.9583 -19.2263 83.7111
lradius 84.3255
lwrist 14.5007
lhand -4.87038 -23.0927
lfingers 7.12502
lthumb 20.9179 5.79944
rfemur 15.7281 -3.9315 24.2817
rtibia -17.0666
rfoot -9.53852 -17.8883
rtoes -1.34253
lfemur 17.5286 -4.25368 -8.42773
ltibia -28.1513
lfoot 7.97111 12.7202
ltoes -19.2862
518
root -1.55895 18.0441 5.57353 1.61025 4.51161 -5.95493
lowerback 15.1608 1.87112 4.71276
upperback 1.77069 3.27409 0.284009
thorax -6.36101 1.48369 -3.02183
lowerneck -8.19111 -9.50043 -9.26161
upperneck 0.91298 -12.2145 10.5299
head 2.81833 -5.85374 3.95524
rclavicle -2.15681e-014 1.94809e-014
rhumerus -4.20515 23.1338 -59.6302
rradius 100.319
rwrist -7.1946
rhand -8.62545 -21.744
rfingers 7.12502
rthumb 17.307 -50.9934
lclavicle -2.15681e-014 1.94809e-014
lhumerus -32.45 -19.3686 83.6475
lradius 84.1821
lwrist 14.7452
lhand -5.02669 -23.963
lfingers 7.12502
lthumb 20.7678 4.94565
rfemur 15.8255 -3.78948 24.2976
rtibia -17.2194
rfoot -9.39315 -17.9859
rtoes -1.61071
lfemur 17.6244 -4.11082 -8.42333
ltibia -28.2203
lfoot 8.05714 12.6886
ltoes -19.2453
519
root -1.55458 18.0417 5.57188 1.58053 4.42424 -5.9215
lowerback 15.2749 1.82818 4.6612
upperback 1.78877 3.21383 0.277547
thorax -6.41201 1.45404 -2.99305
lowerneck -8.26484 -9.41549 -9.23108
upperneck 0.884187 -12.0951 10.527
head 2.80811 -5.79264 3.9573
rclavicle 2.5842e-015 5.56597e-015
rhumerus -4.24757 22.8529 -59.5312
rradius 100.412
rwrist -7.24323
rhand -8.72784 -21.7008
rfingers 7.12502
rthumb 17.2084 -50.9589
lclavicle 2.5842e-015 5.56597e-015
lhumerus -32.0111 -19.591 83.6308
lradius 84.6679
lwrist 14.4514
lhand -5.20759 -22.8306
lfingers 7.12502
lthumb 20.5939 6.09701
rfemur 15.9405 -3.70717 24.2501
rtibia -17.3903
rfoot -9.26766 -18.0626
rtoes -1.76354
lfemur 17.7036 -3.99835 -8.47753
ltibia -28.2755
lfoot 8.09077 12.6989
ltoes -18.9854
520
root -1.54902 18.0415 5.57142 1.6007 4.32187 -5.83989
lowerback 15.3335 1.79636 4.56631
upperback 1.79225 3.15643 0.243444
thorax -6.44842 1.42688 -2.96736
lowerneck -8.35253 -9.33502 -9.16802
upperneck 0.906481 -11.9881 10.5299
head 2.81515 -5.73634 3.95334
rclavicle -3.97569e-014 -1.63003e-014
rhumerus -4.2862 22.5542 -59.4412
rradius 100.493
rwrist -7.28291
rhand -9.03939 -21.5966
rfingers 7.12502
rthumb 16.9085 -50.8806
lclavicle -3.97569e-014 -1.63003e-014
lhumerus -31.553 -19.8313 83.5731
lradius 84.6136
lwrist 14.5765
lhand -5.46087 -23.4102
lfingers 7.12502
lthumb 20.3505 5.5435
rfemur 16.0205 -3.62907 24.144
rtibia -17.5737
rfoot -9.16038 -18.1149
rtoes -1.70488
lfemur 17.7364 -3.91176 -8.58919
ltibia -28.311
lfoot 8.08583 12.7387
ltoes -18.6154
521
root -1.54461 18.0415 5.57092 1.64391 4.24312 -5.79571
lowerback 15.3576 1.74734 4.48765
upperback 1.78943 3.07812 0.22001
thorax -6.47385 1.38957 -2.93378
lowerneck -8.43532 -9.26041 -8.99812
upperneck 0.927947 -11.8936 10.413
head 2.80787 -5.68933 3.8968
rclavicle 4.80065e-014 -9.14409e-015
rhumerus -4.27478 22.2348 -59.3399
rradius 100.566
rwrist -7.28551
rhand -9.10846 -21.5445
rfingers 7.12502
rthumb 16.842 -50.8342
lclavicle 4.80065e-014 -9.14409e-015
lhumerus -31.072 -19.9991 83.4727
lradius 84.7405
lwrist 14.6018
lhand -5.38507 -23.3742
lfingers 7.12502
lthumb 20.4234 5.57176
rfemur 16.061 -3.58413 24.083
rtibia -17.7509
rfoot -8.99758 -18.1816
rtoes -1.92943
lfemur 17.7301 -3.87884 -8.66103
ltibia -28.3323
lfoot 8.07138 12.8084
ltoes -18.2151
522
root -1.53981 18.0403 5.57005 1.68404 4.19741 -5.79671
lowerback 15.3572 1.68542 4.4571
upperback 1.80464 2.99097 0.223874
thorax -6.46606 1.34839 -2.89482
lowerneck -8.5767 -9.20733 -8.84952
upperneck 0.973718 -11.8207 10.2482
head 2.81737 -5.65249 3.82435
rclavicle -2.28602e-014 1.59028e-014
rhumerus -4.19322 21.8632 -59.1836
rradius 100.626
rwrist -7.3674
rhand -8.85353 -21.4809
rfingers 7.12502
rthumb 17.0874 -50.7494
lclavicle -2.28602e-014 1.59028e-014
lhumerus -30.5529 -20.1392 83.385
lradius 84.8261
lwrist 14.7527
lhand -5.28817 -23.5434
lfingers 7.12502
lthumb 20.5165 5.3925
rfemur 16.0925 -3.57773 24.0674
rtibia -17.9184
rfoot -8.86012 -18.2433
rtoes -2.08788
lfemur 17.7116 -3.94058 -8.68552
ltibia -28.3618
lfoot 8.02761 12.9361
ltoes -18.1242
523
root -1.5335 18.0386 5.57041 1.70254 4.08416 -5.80306
lowerback 15.3633 1.65071 4.41926
upperback 1.82059 2.93973 0.241025
thorax -6.45925 1.32497 -2.84498
lowerneck -8.6037 -9.19606 -8.73723
upperneck 0.91214 -11.8003 10.0599
head 2.78187 -5.64729 3.7534
rclavicle 1.93815e-014 2.8625e-014
rhumerus -4.10647 21.4853 -58.9829
rradius 100.673
rwrist -7.38239
rhand -8.63251 -21.2979
rfingers 7.12502
rthumb 17.3002 -50.5479
lclavicle 1.93815e-014 2.8625e-014
lhumerus -30.0354 -20.2831 83.3309
lradius 84.9051
lwrist 14.8827
lhand -5.25318 -23.6401
lfingers 7.12502
lthumb 20.5501 5.29216
rfemur 16.1512 -3.53407 24.0473
rtibia -18.0832
rfoot -8.7549 -18.2512
rtoes -1.86642
lfemur 17.753 -3.98043 -8.70707
ltibia -28.4123
lfoot 8.01293 13.0585
ltoes -18.1869
524
root -1.52687 18.0358 5.57203 1.6901 3.94317 -5.81764
lowerback 15.4148 1.61518 4.40257
upperback 1.81949 2.89253 0.2409
thorax -6.49328 1.30126 -2.82866
lowerneck -8.47848 -9.20194 -8.56666
upperneck 0.735047 -11.8097 9.80965
head 2.68264 -5.66396 3.66223
rclavicle 4.74101e-014 2.38542e-015
rhumerus -4.08121 21.119 -58.8111
rradius 100.785
rwrist -7.30022
rhand -8.67775 -21.1264
rfingers 7.12502
rthumb 17.2566 -50.3802
lclavicle 4.74101e-014 2.38542e-015
lhumerus -29.5482 -20.4408 83.2128
lradius 84.9771
lwrist 15.055
lhand -5.04759 -23.6648
lfingers 7.12502
lthumb 20.7477 5.246
rfemur 16.2462 -3.50535 24.0315
rtibia -18.2423
rfoot -8.65322 -18.2235
rtoes -1.58051
lfemur 17.854 -3.93514 -8.71747
ltibia -28.4689
lfoot 7.99206 13.1249
ltoes -17.9114
525
root -1.5196 18.0322 5.57398 1.66193 3.79301 -5.82232
lowerback 15.4903 1.58003 4.40394
upperback 1.82274 2.8489 0.226751
thorax -6.53396 1.27852 -2.839
lowerneck -8.57075 -9.13002 -8.5169
upperneck 0.819798 -11.7131 9.73596
head 2.70634 -5.61437 3.63475
rclavicle 1.10325e-014 -1.39149e-014
rhumerus -3.99586 20.6969 -58.6696
rradius 100.899
rwrist -7.24416
rhand -9.06989 -21.3035
rfingers 7.12502
rthumb 16.8792 -50.59
lclavicle 1.10325e-014 -1.39149e-014
lhumerus -29.0661 -20.6275 83.0662
lradius 85.064
lwrist 15.1512
lhand -4.81962 -23.6283
lfingers 7.12502
lthumb 20.9667 5.25847
rfemur 16.3599 -3.47914 24.0031
rtibia -18.3907
rfoot -8.58884 -18.1902
rtoes -1.22036
lfemur 17.9747 -3.77875 -8.73341
ltibia -28.5199
lfoot 7.94699 13.141
ltoes -17.5438
